<svg width="135" height="25" viewBox="0 0 135 25" fill="none" xmlns="http://www.w3.org/2000/svg">
<path d="M12.5 0L15.3064 8.63729H24.3882L17.0409 13.9754L19.8473 22.6127L12.5 17.2746L5.15268 22.6127L7.95911 13.9754L0.611794 8.63729H9.69357L12.5 0Z" fill="#FFD000"/>
<path d="M39.7729 0L42.5794 8.63729H51.6612L44.3138 13.9754L47.1203 22.6127L39.7729 17.2746L32.4256 22.6127L35.2321 13.9754L27.8847 8.63729H36.9665L39.7729 0Z" fill="#FFD000"/>
<path d="M67.0454 0L69.8518 8.63729H78.9336L71.5863 13.9754L74.3927 22.6127L67.0454 17.2746L59.6981 22.6127L62.5045 13.9754L55.1572 8.63729H64.239L67.0454 0Z" fill="#FFD000"/>
<path d="M94.3184 0L97.1248 8.63729H106.207L98.8593 13.9754L101.666 22.6127L94.3184 17.2746L86.971 22.6127L89.7775 13.9754L82.4302 8.63729H91.5119L94.3184 0Z" fill="#FFD000"/>
<path d="M121.591 0L124.397 8.63729H133.479L126.132 13.9754L128.938 22.6127L121.591 17.2746L114.244 22.6127L117.05 13.9754L109.703 8.63729H118.784L121.591 0Z" fill="#FFD000"/>
</svg>
