<svg width="114" height="26" viewBox="0 0 114 26" fill="none" xmlns="http://www.w3.org/2000/svg">
<path d="M0.561035 0.814941H5.66895V7.38916H21.3311V0.814941H26.4551V26H21.3311V11.7559H5.66895V26H0.561035V0.814941ZM41.3276 19.7642L30.3223 0.814941H36.1069L43.8574 15.1396L51.5112 0.814941H57.2959L46.4355 19.7319V26H41.3276V19.7642ZM61.1631 0.814941H74.4404C76.374 0.814941 78.0498 1.02441 79.4678 1.44336C80.8857 1.8623 82.062 2.46924 82.9966 3.26416C83.9312 4.04834 84.624 5.00977 85.0752 6.14844C85.5371 7.28711 85.7681 8.5708 85.7681 9.99951C85.7681 11.3423 85.5425 12.583 85.0913 13.7217C84.6401 14.8604 83.9473 15.8486 83.0127 16.6865C82.0889 17.5137 80.918 18.1636 79.5 18.6362C78.082 19.0981 76.4062 19.3291 74.4727 19.3291L66.271 19.313V26H61.1631V0.814941ZM74.5693 14.8979C75.5361 14.8979 76.3794 14.7852 77.0991 14.5596C77.8296 14.3232 78.4365 13.9956 78.9199 13.5767C79.4141 13.147 79.7793 12.6313 80.0156 12.0298C80.2627 11.4175 80.3862 10.7407 80.3862 9.99951C80.3862 8.50635 79.8975 7.34619 78.9199 6.51904C77.9531 5.68115 76.5029 5.26221 74.5693 5.26221H66.271V14.8979H74.5693ZM91.3594 0.814941H112.806V5.29443H96.4673V10.3218H110.937V14.5273H96.4673V21.5366H113.145V26H91.3594V0.814941Z" fill="#FFE100"/>
</svg>
